<?xml version="1.0" encoding="UTF-8"?>
<svg width="36px" height="32px" viewBox="0 0 36 32" version="1.1" xmlns="http://www.w3.org/2000/svg" xmlns:xlink="http://www.w3.org/1999/xlink">
    <!-- Generator: Sketch 60.1 (88133) - https://sketch.com -->
    <title>sharecare_primary_icon</title>
    <desc>Created with Sketch.</desc>
    <g id="Page-1" stroke="none" stroke-width="1" fill="none" fill-rule="evenodd">
        <g id="utilities-/-logo-/-primary-/-icon" transform="translate(-2.000000, -4.000000)" fill="#00BFA5">
            <g id="sharecare_logo" transform="translate(2.000000, 4.000000)">
                <path d="M15.927,28.0254803 C9.24,28.0254803 3.822,22.605161 3.822,15.925 C3.822,9.24183933 9.24,3.82451968 15.927,3.82451968 C22.614,3.82451968 28.029,9.24183933 28.029,15.925 C28.029,22.605161 22.614,28.0254803 15.927,28.0254803 L15.927,28.0254803 Z M35.88,31.7000188 L28.506,25.6977727 C30.789,22.9411189 31.854,19.7855152 31.854,15.925 C31.854,7.12710492 24.723,4.14113188e-14 15.927,4.14113188e-14 C7.131,4.14113188e-14 -9.27036226e-15,7.12710492 -9.27036226e-15,15.925 C-9.27036226e-15,24.7198955 7.131,31.85 15.927,31.85 C19.659,31.85 23.088,30.5571624 25.803,28.4064325 L27.342,31.7000188 L35.88,31.7000188 Z" id="magnifying-glass"></path>
                <path d="M19.7255403,9.17 C19.9565125,9.17 20.2084821,9.182 20.4754499,9.209 C22.1012541,9.365 23.9850271,10.856 24.21,13.712 L24.21,13.7 C24.21,18.881 15.91,24.02 15.91,24.02 C15.91,24.02 7.61,18.683 7.61,13.7 L7.61,13.712 C7.84397181,10.856 9.72174557,9.365 11.3475497,9.209 C11.6115179,9.182 11.8634875,9.17 12.100459,9.17 C13.9812324,9.17 14.881124,9.503 15.91,10.733 C16.9418757,9.503 17.8417673,9.17 19.7255403,9.17" id="heart"></path>
            </g>
        </g>
    </g>
</svg>